<svg viewBox="0 0 88 89" xmlns="http://www.w3.org/2000/svg" fill-rule="evenodd" clip-rule="evenodd" stroke-linejoin="round" stroke-miterlimit="2"><path d="M44 13.618c17.472 0 31.636 14.517 31.636 32.426 0 17.909-14.164 32.427-31.636 32.427S12.364 63.953 12.364 46.044 26.528 13.618 44 13.618zm-.662 40.471c-2.954.005-5.384 2.434-5.388 5.389.003 2.956 2.433 5.387 5.388 5.392 2.956-.005 5.386-2.436 5.389-5.392-.004-2.954-2.434-5.384-5.389-5.389zm.781-29.061c-6.385 0-10.462 2.69-13.656 7.47a1.415 1.415 0 0 0 .315 1.907l4.069 3.08a1.408 1.408 0 0 0 1.951-.249c2.095-2.651 3.529-4.193 6.715-4.193 2.394 0 5.355 1.542 5.355 3.864 0 1.755-1.447 2.654-3.814 3.98-2.753 1.547-6.401 3.468-6.401 8.281v.468c0 .775.628 1.406 1.403 1.406h6.565c.775 0 1.403-.631 1.403-1.406v-.158c0-3.335 9.751-3.471 9.751-12.499 0-6.795-7.052-11.951-13.656-11.951z" fill="#2962ff"/><path d="M31.941 78.536a2.731 2.731 0 0 0 3.509-1.634 2.766 2.766 0 0 0-1.625-3.528C22.248 69.101 14.47 57.894 14.47 45.488c0-16.373 13.247-29.694 29.53-29.694s29.532 13.321 29.532 29.694c0 11.741-6.9 22.4-17.575 27.16a2.77 2.77 0 0 0-1.392 3.628 2.734 2.734 0 0 0 3.608 1.4C70.826 72.036 79 59.401 79 45.488c0-19.404-15.702-35.192-35-35.192-19.298 0-35 15.788-35 35.192 0 14.704 9.219 27.984 22.941 33.048" fill="#333"/><circle cx="44.5" cy="77.975" r="3.025" fill="#333"/></svg>