<svg xmlns="http://www.w3.org/2000/svg" xmlns:xlink="http://www.w3.org/1999/xlink" width="21" height="21"><defs><path id="a" d="M0 0h21v21H0z"/></defs><g fill="none" fill-rule="evenodd"><mask id="b" fill="#fff"><use xlink:href="#a"/></mask><path fill="#3700B3" d="M10.5 13.972a1.95 1.95 0 0 0-1.947 1.947 1.95 1.95 0 0 0 1.947 1.948 1.95 1.95 0 0 0 1.947-1.948 1.95 1.95 0 0 0-1.947-1.947m.282-10.5c-2.307 0-3.78.972-4.934 2.699a.509.509 0 0 0 .114.689l1.47 1.113a.507.507 0 0 0 .705-.09c.757-.958 1.275-1.515 2.426-1.515.865 0 1.935.557 1.935 1.396 0 .634-.523.959-1.378 1.438-.995.559-2.313 1.253-2.313 2.992v.169c0 .28.227.508.507.508h2.372c.28 0 .507-.228.507-.508v-.057c0-1.205 3.523-1.254 3.523-4.516 0-2.455-2.548-4.318-4.934-4.318M21 10.5C21 16.3 16.299 21 10.5 21 4.7 21 0 16.3 0 10.5 0 4.703 4.7 0 10.5 0 16.299 0 21 4.703 21 10.5" mask="url(#b)"/></g></svg>