<svg xmlns="http://www.w3.org/2000/svg" xmlns:xlink="http://www.w3.org/1999/xlink" width="88" height="89"><defs><path id="a" d="M0 .003h87.997V89H0z"/><path id="c" d="M.128.003h17.605v18.859H.128z"/><path id="e" d="M0 .14h17.866v18.61H0z"/><path id="g" d="M0 .003h17.866v18.859H0z"/></defs><g fill="none" fill-rule="evenodd"><path fill="#2962FF" d="M5.5 79a4.5 4.5 0 110 9 4.5 4.5 0 010-9"/><path fill="#FFEE58" d="M82.5 79a4.5 4.5 0 110 9 4.5 4.5 0 010-9"/><path fill="#7CB342" d="M5.5 1a4.5 4.5 0 110 9 4.5 4.5 0 010-9"/><path fill="#FF6F00" d="M82.5 1a4.5 4.5 0 110 9 4.5 4.5 0 010-9"/><path fill="#2962FF" d="M24.029 17.108l5.156 3.147 7.901-3.324L38.542 11h9.916l1.456 5.93 7.9 3.325 5.157-3.147 7.014 7.121-3.1 5.237 3.275 8.022L76 38.965v10.07l-5.84 1.477-3.275 8.023 3.1 5.236-7.014 7.121-5.157-3.147-7.9 3.325L48.458 77h-9.916l-1.456-5.93-7.9-3.325-5.157 3.147-7.014-7.121 3.1-5.236-3.275-8.023L11 49.035v-10.07l5.84-1.477 3.275-8.022-3.1-5.237z"/><path fill="#FFF" d="M44 24c11.046 0 20 9.178 20 20.5S55.046 65 44 65s-20-9.178-20-20.5S32.954 24 44 24"/><mask id="b" fill="#fff"><use xlink:href="#a"/></mask><path fill="#333" d="M66.27 60.097l2.455 4.13-5.222 5.282-4.085-2.483a1.7 1.7 0 00-1.544-.116l-8.022 3.362c-.503.211-.878.65-1.01 1.186l-1.153 4.68h-7.382l-1.153-4.68a1.731 1.731 0 00-1.01-1.186l-8.022-3.362a1.7 1.7 0 00-1.543.116l-4.085 2.483-5.223-5.281 2.456-4.131a1.76 1.76 0 00.115-1.561l-3.325-8.114a1.724 1.724 0 00-1.172-1.021l-4.627-1.166v-7.467l4.627-1.166a1.726 1.726 0 001.172-1.021l3.325-8.113a1.758 1.758 0 00-.115-1.561l-2.455-4.132 5.222-5.281 4.085 2.483c.467.284 1.04.327 1.543.116l8.022-3.362a1.73 1.73 0 001.01-1.186l1.153-4.68h7.382l1.153 4.68c.132.535.507.975 1.01 1.186l8.022 3.362a1.703 1.703 0 001.544-.116l4.084-2.483 5.223 5.281-2.456 4.132a1.756 1.756 0 00-.114 1.56l3.324 8.114c.208.51.644.888 1.172 1.021l4.627 1.166v7.467L70.651 49.4a1.723 1.723 0 00-1.172 1.021l-3.324 8.114a1.756 1.756 0 00.114 1.56m6.094 3.505l-2.701-4.544 2.66-6.495 5.09-1.282a1.735 1.735 0 001.304-1.687V46.24h7.562c.95 0 1.719-.779 1.719-1.738 0-.96-.77-1.739-1.72-1.739h-7.561V39.41c0-.798-.538-1.494-1.303-1.687l-5.09-1.282-2.661-6.495 2.7-4.544a1.751 1.751 0 00-.257-2.124l-7.121-7.203a1.705 1.705 0 00-2.101-.26l-4.494 2.73-6.42-2.69-1.269-5.148a1.722 1.722 0 00-1.668-1.318h-3.315V1.741c0-.96-.77-1.738-1.719-1.738-.95 0-1.718.778-1.718 1.738V9.39h-3.316c-.79 0-1.477.544-1.668 1.319l-1.268 5.147-6.421 2.691-4.494-2.731a1.704 1.704 0 00-2.1.26l-7.122 7.203a1.753 1.753 0 00-.258 2.125l2.701 4.544-2.66 6.494-5.09 1.282A1.735 1.735 0 009.28 39.41v3.353H1.719c-.95 0-1.719.778-1.719 1.739 0 .96.77 1.738 1.719 1.738H9.28v3.353c0 .799.537 1.494 1.303 1.687l5.09 1.282 2.66 6.495-2.7 4.544c-.407.684-.3 1.56.258 2.124l7.121 7.203a1.705 1.705 0 002.101.26l4.493-2.731 6.421 2.691 1.268 5.148c.191.774.88 1.318 1.668 1.318h3.316v7.648c0 .96.77 1.738 1.719 1.738.949 0 1.718-.778 1.718-1.738v-7.648h3.316c.79 0 1.477-.544 1.668-1.318l1.268-5.148 6.421-2.691 4.493 2.732a1.705 1.705 0 002.101-.261l7.122-7.203c.557-.564.663-1.44.257-2.124" mask="url(#b)"/><path fill="#333" d="M50.58 24.106a1.716 1.716 0 00-2.206 1.027 1.731 1.731 0 001.022 2.218c7.277 2.686 12.166 9.73 12.166 17.528 0 10.292-8.327 18.665-18.562 18.665-10.235 0-18.563-8.373-18.563-18.665 0-7.38 4.337-14.08 11.047-17.072a1.732 1.732 0 00.875-2.28 1.715 1.715 0 00-2.268-.88C26.138 28.192 21 36.134 21 44.879 21 57.076 30.87 67 43 67s22-9.924 22-22.121c0-9.242-5.795-17.59-14.42-20.773"/><path fill="#333" d="M44.951 26h.098c1.075 0 1.947-.892 1.951-1.994.003-1.105-.868-2.002-1.946-2.006h-.103C43.873 22 43 22.896 43 24c0 1.105.873 2 1.951 2M58 49.212V38.788c0-.987-.895-1.788-2-1.788s-2 .8-2 1.788v10.424c0 .987.895 1.788 2 1.788s2-.8 2-1.788m-11.422-8.635h1.897a.95.95 0 01.948.948v.532a.95.95 0 01-.948.949h-1.897v-2.429zM43 38.788v10.424a1.789 1.789 0 003.578 0v-2.63h1.897A4.53 4.53 0 0053 42.057v-.533A4.53 4.53 0 0048.475 37h-3.686C43.8 37 43 37.8 43 38.788zM33.5 37c-.728 0-1.387.418-1.675 1.063l-4.677 10.491c-.397.89.031 1.922.956 2.304.925.381 1.997-.03 2.394-.92l3.002-6.736 3.003 6.735c.296.665.968 1.063 1.675 1.063.24 0 .483-.046.718-.142.925-.382 1.353-1.413.956-2.303l-4.678-10.492A1.824 1.824 0 0033.5 37"/><g transform="translate(70)"><mask id="d" fill="#fff"><use xlink:href="#c"/></mask><path fill="#333" d="M12.046 3.588c1.29 0 2.341 1.126 2.341 2.51 0 1.383-1.05 2.509-2.341 2.509-1.292 0-2.343-1.126-2.343-2.51 0-1.383 1.051-2.509 2.343-2.509M1.8 18.862a1.61 1.61 0 001.183-.525l6.4-6.856c.795.453 1.7.71 2.662.71 3.136 0 5.687-2.733 5.687-6.093 0-3.361-2.551-6.095-5.687-6.095-3.137 0-5.688 2.734-5.688 6.095 0 1.028.24 1.997.661 2.847l-6.4 6.857a1.885 1.885 0 000 2.535c.326.35.754.525 1.182.525" mask="url(#d)"/></g><g transform="translate(0 70)"><mask id="f" fill="#fff"><use xlink:href="#e"/></mask><path fill="#333" d="M5.774 15.212c-1.311 0-2.378-1.11-2.378-2.476 0-1.365 1.067-2.476 2.378-2.476 1.31 0 2.377 1.11 2.377 2.476 0 1.365-1.067 2.476-2.377 2.476M14.967.657L8.473 7.422a5.56 5.56 0 00-2.7-.7C2.59 6.722 0 9.42 0 12.736c0 3.316 2.59 6.014 5.774 6.014 3.183 0 5.773-2.698 5.773-6.014a6.175 6.175 0 00-.672-2.812l6.494-6.765a1.822 1.822 0 000-2.502 1.652 1.652 0 00-2.402 0" mask="url(#f)"/></g><path fill="#333" d="M71 70c-.526 0-1.042.214-1.414.586A2.014 2.014 0 0069 72c0 .526.214 1.042.586 1.414.372.372.888.586 1.414.586a2.02 2.02 0 001.416-.586A2.01 2.01 0 0073 72c0-.526-.212-1.042-.584-1.414A2.024 2.024 0 0071 70m11.325 15.422c-1.288 0-2.337-1.123-2.337-2.504 0-1.38 1.049-2.504 2.337-2.504 1.288 0 2.337 1.124 2.337 2.504s-1.049 2.504-2.337 2.504m0-8.586c-.959 0-1.863.258-2.656.71l-2.82-3.022a1.592 1.592 0 00-2.36 0 1.88 1.88 0 000 2.53l2.821 3.023a6.393 6.393 0 00-.66 2.841c0 3.354 2.546 6.082 5.675 6.082C85.455 89 88 86.272 88 82.918c0-3.353-2.545-6.082-5.675-6.082"/><mask id="h" fill="#fff"><use xlink:href="#g"/></mask><path fill="#333" d="M5.774 3.588c1.31 0 2.377 1.126 2.377 2.51 0 1.383-1.067 2.509-2.377 2.509-1.311 0-2.378-1.126-2.378-2.51 0-1.383 1.067-2.509 2.378-2.509m0 8.604a5.5 5.5 0 002.699-.71l6.494 6.855c.332.35.767.525 1.201.525.435 0 .87-.175 1.201-.525.663-.7.663-1.835 0-2.535l-6.494-6.855c.428-.85.672-1.82.672-2.85 0-3.36-2.59-6.094-5.774-6.094C2.59.003 0 2.737 0 6.098c0 3.36 2.59 6.094 5.774 6.094" mask="url(#h)"/></g></svg>