<svg xmlns="http://www.w3.org/2000/svg" xmlns:xlink="http://www.w3.org/1999/xlink" width="89" height="89"><defs><path id="a" d="M.02.543h46.973v53.215H.02z"/></defs><g fill="none" fill-rule="evenodd"><g transform="translate(21)"><mask id="b" fill="#fff"><use xlink:href="#a"/></mask><path fill="#333" d="M5.419 37.592L23.506 48.1l18.088-10.508V16.845L23.506 6.335 5.42 16.846v20.747zm18.087 16.166c-.54 0-.81 0-1.35-.27L1.37 41.633c-.81-.54-1.35-1.347-1.35-2.425v-23.98c0-1.078.54-1.886 1.35-2.425L22.156.947a2.456 2.456 0 012.7 0l20.788 11.856c.81.539 1.35 1.347 1.35 2.425v23.98c0 1.078-.54 1.886-1.35 2.425L24.856 53.219c-.54.27-.81.539-1.35.539z" mask="url(#b)"/></g><path fill="#7CB342" d="M33 33.367V20.632L44.5 14 56 20.632v12.735L44.5 40z"/><path fill="#FFF" d="M65 87L44 75.135v-24L65 39l21 12.135v24z"/><path fill="#333" d="M47.403 72.98L65.5 83.393 83.598 72.98V52.421L65.5 42.007 47.403 52.421v20.56zM65.5 89c-.54 0-.81 0-1.35-.267l-20.8-12.015c-.81-.534-1.35-1.335-1.35-2.403V50.55c0-1.068.54-1.869 1.35-2.403L64.15 36.4a2.478 2.478 0 012.7 0l20.8 11.747c.81.534 1.35 1.335 1.35 2.403v23.764c0 1.068-.54 1.869-1.35 2.403l-20.8 11.747c-.54.535-.81.535-1.35.535z"/><path fill="#FF6F00" d="M54 69.567V56.433L65.5 50 77 56.433v13.134L65.5 76z"/><path fill="#FFF" d="M23 87L2 75.135v-24L23 39l21 12.135v24z"/><path fill="#333" d="M5.402 72.899L23.5 83.365l18.097-10.466V52.236L23.5 41.769 5.402 52.236v20.663zM23.5 89c-.54 0-.81 0-1.35-.268L1.35 76.924C.54 76.387 0 75.582 0 74.509V50.625c0-1.073.54-1.879 1.35-2.415l20.8-11.807a2.467 2.467 0 012.7 0l20.8 11.807c.81.536 1.35 1.342 1.35 2.415v23.884c0 1.073-.54 1.878-1.35 2.415l-20.8 11.808c-.54.268-.81.268-1.35.268z"/><path fill="#2962FF" d="M12 69.567V56.433L23.5 50 35 56.433v13.134L23.5 76z"/><path fill="#183651" d="M11 23.598L8.402 28 4 25.402 6.598 21zm34 60.45L44.952 89 40 88.952 40.048 84zm38-57.574L78.526 29 76 24.526 80.474 22z"/></g></svg>